# xmcd
#
# Track frame offsets:
#	150
#	23005
#	47826
#	66163
#	90257
#	108205
#	126475
#	137537
#	161689
#	185802
#	203164
#	236133
#	258200
#	284033
#
# Disc length: 3959 seconds
#
# Revision: 17
# Processed by: cddbd v1.5.2PL0 Copyright (c) Steve Scherf et al.
# Submitted via: EasyCDDAExtractor 15.3.0.1
#
DISCID=ca0f750e
DTITLE=Madonna - I'm Going To Tell You A Secret
DYEAR=2006
DGENRE=Pop
TTITLE0=The Beast Within
TTITLE1=Vogue
TTITLE2=Nobody Knows Me
TTITLE3=American Life
TTITLE4=Hollywood (Remix)
TTITLE5=Die Another Day
TTITLE6=Lament
TTITLE7=Like A Prayer
TTITLE8=Mother And Father
TTITLE9=Imagine
TTITLE10=Susan MacLeod, Into The Groove
TTITLE11=Music
TTITLE12=Holiday
TTITLE13=I Love New York
EXTD=YEAR: 2006
EXTT0=
EXTT1=
EXTT2=
EXTT3=
EXTT4=
EXTT5=
EXTT6=
EXTT7=
EXTT8=
EXTT9=
EXTT10=
EXTT11=
EXTT12=
EXTT13=
PLAYORDER=
